<svg width="37" height="38" viewBox="0 0 37 38" fill="none" xmlns="http://www.w3.org/2000/svg">
<path d="M3.08398 5.53858H12.334C13.9695 5.53858 15.538 6.18828 16.6945 7.34476C17.851 8.50123 18.5007 10.0697 18.5007 11.7052V33.2886C18.5007 32.062 18.0134 30.8856 17.146 30.0182C16.2787 29.1509 15.1023 28.6636 13.8757 28.6636H3.08398V5.53858Z" stroke="#FFFCF6" stroke-width="3" stroke-linecap="round" stroke-linejoin="round"/>
<path d="M33.9167 5.53858H24.6667C23.0312 5.53858 21.4626 6.18828 20.3062 7.34476C19.1497 8.50123 18.5 10.0697 18.5 11.7052V33.2886C18.5 32.062 18.9873 30.8856 19.8546 30.0182C20.722 29.1509 21.8984 28.6636 23.125 28.6636H33.9167V5.53858Z" stroke="#FFFCF6" stroke-width="3" stroke-linecap="round" stroke-linejoin="round"/>
</svg>
