<svg width="37" height="38" viewBox="0 0 37 38" fill="none" xmlns="http://www.w3.org/2000/svg">
<path d="M27.75 13.3086H29.2917C30.9272 13.3086 32.4957 13.9583 33.6522 15.1148C34.8086 16.2713 35.4583 17.8398 35.4583 19.4753C35.4583 21.1108 34.8086 22.6793 33.6522 23.8358C32.4957 24.9923 30.9272 25.642 29.2917 25.642H27.75" stroke="#FFFCF6" stroke-width="3" stroke-linecap="round" stroke-linejoin="round"/>
<path d="M3.08398 13.3086H27.7507V27.1836C27.7507 28.8192 27.101 30.3877 25.9445 31.5441C24.788 32.7006 23.2195 33.3503 21.584 33.3503H9.25065C7.61515 33.3503 6.04663 32.7006 4.89016 31.5441C3.73369 30.3877 3.08398 28.8192 3.08398 27.1836V13.3086Z" stroke="#FFFCF6" stroke-width="3" stroke-linecap="round" stroke-linejoin="round"/>
<path d="M9.25 2.51698V7.14198" stroke="#FFFCF6" stroke-width="3" stroke-linecap="round" stroke-linejoin="round"/>
<path d="M15.416 2.51698V7.14198" stroke="#FFFCF6" stroke-width="3" stroke-linecap="round" stroke-linejoin="round"/>
<path d="M21.584 2.51698V7.14198" stroke="#FFFCF6" stroke-width="3" stroke-linecap="round" stroke-linejoin="round"/>
</svg>
