<svg width="37" height="37" viewBox="0 0 37 37" fill="none" xmlns="http://www.w3.org/2000/svg">
<path d="M24.666 32.375V29.2917C24.666 27.6562 24.0163 26.0877 22.8598 24.9312C21.7034 23.7747 20.1349 23.125 18.4993 23.125H7.70768C6.07218 23.125 4.50366 23.7747 3.34719 24.9312C2.19072 26.0877 1.54102 27.6562 1.54102 29.2917V32.375" stroke="#FFFCF6" stroke-width="3" stroke-linecap="round" stroke-linejoin="round"/>
<path d="M13.1042 16.9583C16.5099 16.9583 19.2708 14.1974 19.2708 10.7917C19.2708 7.38591 16.5099 4.625 13.1042 4.625C9.69841 4.625 6.9375 7.38591 6.9375 10.7917C6.9375 14.1974 9.69841 16.9583 13.1042 16.9583Z" stroke="#FFFCF6" stroke-width="3" stroke-linecap="round" stroke-linejoin="round"/>
<path d="M26.209 16.9583L29.2923 20.0417L35.459 13.875" stroke="#FFFCF6" stroke-width="3" stroke-linecap="round" stroke-linejoin="round"/>
</svg>
