<svg width="40" height="40" viewBox="0 0 40 40" fill="none" xmlns="http://www.w3.org/2000/svg">
<path d="M28.2008 3.33333H33.2008C33.665 3.33145 34.1244 3.42653 34.5497 3.61248C34.975 3.79844 35.3568 4.07117 35.6706 4.4132C35.9844 4.75524 36.2233 5.15904 36.372 5.59875C36.5207 6.03846 36.5759 6.50438 36.5341 6.96667C35.9769 12.0953 34.2244 17.0217 31.4175 21.35C28.8586 25.377 25.4444 28.7911 21.4175 31.35C17.0695 34.1667 12.1191 35.9196 6.96748 36.4667C6.50659 36.5083 6.04208 36.4535 5.60352 36.3058C5.16496 36.1581 4.76196 35.9207 4.42018 35.6087C4.0784 35.2967 3.80533 34.917 3.61835 34.4937C3.43137 34.0704 3.33458 33.6128 3.33415 33.15L3.33415 28.15C3.32619 27.3412 3.61261 26.557 4.14003 25.9437C4.66746 25.3304 5.39989 24.9299 6.20081 24.8167C7.80092 24.6056 9.37202 24.2142 10.8841 23.65C11.4807 23.4258 12.129 23.3772 12.7523 23.5102C13.3756 23.6431 13.9477 23.9519 14.4008 24.4L16.5175 26.5167C20.6901 24.1441 24.1449 20.6892 26.5175 16.5167L24.4008 14.4C23.9527 13.9469 23.6439 13.3747 23.511 12.7515C23.378 12.1282 23.4266 11.4799 23.6508 10.8833C24.2151 9.37121 24.6064 7.80011 24.8175 6.2C24.9317 5.39039 25.3395 4.651 25.9633 4.12244C26.5871 3.59389 27.3834 3.31305 28.2008 3.33333Z" stroke="#232323" stroke-width="3" stroke-linecap="round" stroke-linejoin="round"/>
</svg>
