<svg width="50" height="50" viewBox="0 0 50 50" fill="none" xmlns="http://www.w3.org/2000/svg">
<path d="M35.25 4.16664H41.5C42.0802 4.16429 42.6545 4.28314 43.1862 4.51558C43.7178 4.74802 44.195 5.08894 44.5872 5.51648C44.9795 5.94403 45.2781 6.44878 45.464 6.99842C45.6499 7.54805 45.7189 8.13045 45.6667 8.70831C44.9701 15.1191 42.7795 21.2771 39.2709 26.6875C36.0722 31.7212 31.8046 35.9889 26.7709 39.1875C21.3359 42.7084 15.1479 44.8995 8.70837 45.5833C8.13226 45.6354 7.55162 45.5669 7.00342 45.3823C6.45522 45.1976 5.95147 44.9009 5.52425 44.5109C5.09702 44.1209 4.75568 43.6462 4.52196 43.1171C4.28824 42.5879 4.16725 42.0159 4.16671 41.4375V35.1875C4.15675 34.1764 4.51479 33.1962 5.17407 32.4296C5.83334 31.663 6.74889 31.1623 7.75004 31.0208C9.75018 30.757 11.7141 30.2678 13.6042 29.5625C14.3499 29.2822 15.1603 29.2215 15.9394 29.3877C16.7185 29.5538 17.4336 29.9398 18 30.5L20.6459 33.1458C25.8616 30.1801 30.1801 25.8615 33.1459 20.6458L30.5 18C29.9399 17.4335 29.5539 16.7184 29.3877 15.9393C29.2216 15.1602 29.2822 14.3498 29.5625 13.6041C30.2678 11.714 30.7571 9.75011 31.0209 7.74998C31.1636 6.73796 31.6734 5.81372 32.4531 5.15303C33.2329 4.49234 34.2283 4.14129 35.25 4.16664Z" stroke="#FFFCF6" stroke-width="3" stroke-linecap="round" stroke-linejoin="round"/>
</svg>
