<svg width="37" height="38" viewBox="0 0 37 38" fill="none" xmlns="http://www.w3.org/2000/svg">
<path d="M11.654 34.6862H7.01705C6.1972 34.6862 5.41092 34.3657 4.83119 33.7952C4.25147 33.2247 3.92578 32.4509 3.92578 31.644V20.9963C3.92578 20.1895 4.25147 19.4157 4.83119 18.8452C5.41092 18.2746 6.1972 17.9541 7.01705 17.9541H11.654M22.4734 14.9119V8.8275C22.4734 7.61724 21.9849 6.45654 21.1153 5.60076C20.2457 4.74497 19.0663 4.2642 17.8365 4.2642L11.654 17.9541V34.6862H29.0887C29.8343 34.6945 30.5577 34.4374 31.1257 33.9622C31.6938 33.487 32.0682 32.8258 32.18 32.1004L34.313 18.4104C34.3802 17.9744 34.3504 17.5292 34.2254 17.1057C34.1005 16.6822 33.8835 16.2905 33.5894 15.9577C33.2954 15.6249 32.9313 15.359 32.5225 15.1784C32.1137 14.9979 31.6698 14.9069 31.2217 14.9119H22.4734Z" stroke="#FFFCF6" stroke-width="3" stroke-linecap="round" stroke-linejoin="round"/>
</svg>
