<svg width="1440" height="315" viewBox="0 0 1440 315" fill="none" xmlns="http://www.w3.org/2000/svg">
<path fill-rule="evenodd" clip-rule="evenodd" d="M0 209.73L81.6667 216.208C163.333 221.877 326.667 233.213 490 209.73C653.333 187.057 816.667 128.753 980 99.6015C1143.33 70.4499 1306.67 70.4499 1470 58.3033C1633.33 46.9666 1796.67 23.4833 1878.33 12.1465L1960 0V315H1878.33C1796.67 315 1633.33 315 1470 315C1306.67 315 1143.33 315 980 315C816.667 315 653.333 315 490 315C326.667 315 163.333 315 81.6667 315H0V209.73Z" fill="#171717"/>
</svg>
