<svg width="1440" height="210" viewBox="0 0 1440 210" fill="none" xmlns="http://www.w3.org/2000/svg">
<path fill-rule="evenodd" clip-rule="evenodd" d="M0 116.607L48 124.704C96 132.262 192 147.918 288 159.255C384 171.131 480 178.689 576 151.697C672 124.704 768 62.0823 864 46.9666C960 31.3111 1056 62.0823 1152 62.0823C1248 62.0823 1344 31.3111 1392 15.6555L1440 0V210H1392C1344 210 1248 210 1152 210C1056 210 960 210 864 210C768 210 672 210 576 210C480 210 384 210 288 210C192 210 96 210 48 210H0V116.607Z" fill="#171717"/>
</svg>
