<svg width="2150" height="299" viewBox="0 0 2150 299" fill="none" xmlns="http://www.w3.org/2000/svg">
<path fill-rule="evenodd" clip-rule="evenodd" d="M0 232.897L89.5833 199.077C179.167 166.026 358.333 99.9229 537.5 88.3933C716.667 77.6324 895.833 122.213 1075 143.735C1254.17 166.026 1433.33 166.026 1612.5 138.355C1791.67 110.684 1970.83 55.3419 2060.42 27.671L2150 0V299H2060.42C1970.83 299 1791.67 299 1612.5 299C1433.33 299 1254.17 299 1075 299C895.833 299 716.667 299 537.5 299C358.333 299 179.167 299 89.5833 299H0V232.897Z" fill="#a48867"/>
</svg>
