<svg width="2750" height="210" viewBox="0 0 2750 230" fill="none" xmlns="http://www.w3.org/2000/svg">
<path fill-rule="evenodd" clip-rule="evenodd" d="M175.722 179.152L282.984 153.136C390.246 127.712 604.769 76.8638 819.292 67.9949C1033.81 59.7172 1248.34 94.0103 1462.86 110.566C1677.38 127.712 1891.91 127.712 2106.43 106.427C2320.95 85.1414 2535.48 42.5707 2642.74 21.2853L2750 0V230H2642.74C2535.48 230 2320.95 230 2106.43 230C1891.91 230 1677.38 230 1462.86 230C1248.34 230 1033.81 230 819.292 230C604.769 230 390.246 230 282.984 230H0L175.722 179.152Z" fill="#A48867"/>
</svg>
